<svg width="230" height="230" viewBox="0 0 230 230" fill="none" xmlns="http://www.w3.org/2000/svg">
<path fill-rule="evenodd" clip-rule="evenodd" d="M46.8582 33.2291L69.3774 0.85787C69.7512 0.320429 70.3645 0 71.0192 0H159.924C160.582 0 161.197 0.322995 161.57 0.863992L184.596 34.2274C185.113 34.9769 185.059 35.9811 184.464 36.6704L117.492 114.242C116.693 115.168 115.258 115.166 114.461 114.238L46.9828 35.6744C46.3889 34.9829 46.3377 33.9774 46.8582 33.2291Z" fill="#A1A1AA"/>
<path fill-rule="evenodd" clip-rule="evenodd" d="M54.5351 59.8152C53.4668 58.5714 51.5944 58.4122 50.3672 59.4996C30.2073 77.3619 17.5 103.447 17.5 132.5C17.5 186.348 61.1522 230 115 230C168.848 230 212.5 186.348 212.5 132.5C212.5 104.072 200.333 78.4854 180.923 60.6635C179.703 59.543 177.805 59.6853 176.722 60.9394L159.731 80.6194C158.649 81.8737 158.793 83.7637 159.997 84.9023C172.623 96.8422 180.5 113.751 180.5 132.5C180.5 168.675 151.175 198 115 198C78.8253 198 49.5 168.675 49.5 132.5C49.5 113.195 57.8514 95.8413 71.1384 83.8535C72.3879 82.7262 72.5609 80.8024 71.4644 79.5257L54.5351 59.8152Z" fill="#E9AD11"/>
</svg>
